<?xml version="1.0"?>
<svg xmlns="http://www.w3.org/2000/svg" viewBox="0 -1 512.00025 512" width="512px" height="512px"><path d="m504.460938 253.207031c-4.164063 0-7.539063 3.375-7.539063 7.539063v224.152344c0 5.820312-4.734375 10.554687-10.558594 10.554687h-199.792969c-4.171874 0-7.539062 3.367187-7.539062 7.539063 0 4.164062 3.367188 7.542968 7.539062 7.542968h199.792969c14.136719 0 25.636719-11.503906 25.636719-25.636718v-224.152344c0-4.164063-3.378906-7.539063-7.539062-7.539063zm0 0" fill="#FFFFFF"/><path d="m486.363281 80.265625h-165.921875v-51.613281c0-15.792969-12.847656-28.652344-28.652344-28.652344-51.652343.00390625-199.015624-.00390625-199.601562.0117188-2.003906-.0039063-4.003906.7734372-5.488281 2.3398432l-84.632813 89.136719c-1.847656 1.945313-2.445312 4.617188-1.835937 7.039063v265.5625c0 15.792968 12.859375 28.652344 28.652343 28.652344h132.589844v92.15625c0 14.132812 11.5 25.636718 25.632813 25.636718h69.304687c4.164063 0 7.542969-3.378906 7.542969-7.542968 0-4.171876-3.378906-7.539063-7.542969-7.539063h-69.304687c-5.820313 0-10.554688-4.734375-10.554688-10.554687v-92.15625h115.238281c15.804688 0 28.652344-12.859376 28.652344-28.652344v-185.828125c0-4.164063-3.378906-7.539063-7.542968-7.539063-4.160157 0-7.539063 3.375-7.539063 7.539063v185.828125c0 7.480468-6.089844 13.574218-13.570313 13.574218-9.847656 0-250.5625 0-262.90625 0-7.480468 0-13.574218-6.09375-13.574218-13.574218v-259.871094h55.988281c15.792969 0 28.648437-12.855469 28.648437-28.648438v-60.492187h191.84375c7.480469 0 13.570313 6.09375 13.570313 13.574219v119.449218c0 4.160157 3.378906 7.539063 7.539063 7.539063 4.164062 0 7.542968-3.378906 7.542968-7.539063v-52.757812h165.921875c5.824219 0 10.558594 4.734375 10.558594 10.554688v124.6875c0 4.164062 3.375 7.539062 7.539063 7.539062 4.160156 0 7.539062-3.375 7.539062-7.539062v-124.6875c0-14.132813-11.5-25.632813-25.636719-25.632813zm-401.496093-4.695313c0 7.476563-6.09375 13.570313-13.570313 13.570313h-46.207031l59.777344-62.957031zm0 0" fill="#FFFFFF"/><path d="m122.902344 159.390625c6.429687 0 6.628906-13.925781 0-13.925781h-42.632813c-3.542969 0-6.960937 1.710937-6.960937 5.007812v79.273438c0 6.703125 15.878906 6.636718 15.878906 0v-33.46875h18.6875c6.609375 0 6.421875-12.460938 0-12.460938h-18.6875v-24.429687h33.714844zm0 0" fill="#FFFFFF"/><path d="m135.355469 150.347656v79.398438c0 3.300781 3.421875 5.007812 6.964843 5.007812h38.722657c6.300781 0 6.398437-13.921875 0-13.921875h-29.804688v-70.484375c-.003906-6.53125-15.882812-6.566406-15.882812 0zm0 0" fill="#FFFFFF"/><path d="m223.058594 230.113281c24.882812-81.574219 23.699218-77.367187 23.699218-78.054687 0-5.78125-13.753906-9.644532-15.394531-3.417969l-18.566406 66.203125-18.6875-66.203125c-1.605469-6.101563-15.390625-2.550781-15.390625 3.417969 0 .824218-.246094-.550782 23.816406 78.054687 2.4375 7.308594 18.402344 7.074219 20.523438 0zm0 0" fill="#FFFFFF"/><path d="m478.648438 484.828125c4.164062 0 7.539062-3.375 7.539062-7.539063v-210.554687c0-4.167969-3.375-7.542969-7.539062-7.542969h-139.820313c-4.164063 0-7.542969 3.375-7.542969 7.542969v210.554687c0 4.164063 3.378906 7.539063 7.542969 7.539063zm-26.726563-210.554687h19.1875v20.007812h-19.1875zm0 35.085937h19.1875v20.015625h-19.1875zm0 35.097656h19.1875v20.011719h-19.1875zm0 35.09375h19.1875v20.015625h-19.1875zm0 35.09375h19.1875v20.015625h-19.1875zm0 35.09375h19.1875v20.011719h-19.1875zm-71.285156-175.464843h56.203125v90.199218h-56.203125zm0 105.277343h56.203125v90.199219h-56.203125zm-34.269531-105.277343h19.1875v20.007812h-19.1875zm0 35.085937h19.1875v20.015625h-19.1875zm0 35.097656h19.1875v20.011719h-19.1875zm0 35.09375h19.1875v20.015625h-19.1875zm0 35.09375h19.1875v20.015625h-19.1875zm0 35.09375h19.1875v20.011719h-19.1875zm0 0" fill="#FFFFFF"/></svg>
